<?xml version="1.0" encoding="UTF-8" standalone="no"?>
<svg width="137px" height="25px" viewBox="0 0 137 25" version="1.1" xmlns="http://www.w3.org/2000/svg" xmlns:xlink="http://www.w3.org/1999/xlink">
    <!-- Generator: Sketch 42 (36781) - http://www.bohemiancoding.com/sketch -->
    <title>uProxy Logo</title>
    <desc>Created with Sketch.</desc>
    <defs></defs>
    <g id="Symbols" stroke="none" stroke-width="1" fill="none" fill-rule="evenodd">
        <g id="Navigation" transform="translate(-146.000000, -23.000000)" fill="#FFFFFF">
            <g id="uProxy-Logo">
                <g transform="translate(146.000000, 23.000000)">
                    <path d="M27.6192385,1.81034483 C28.8458498,3.01724741 29.4591461,4.46838233 29.4591461,6.1637931 C29.4591461,7.85920386 28.8458498,9.30554957 27.6192385,10.5028736 C26.3926273,11.7001976 24.9129281,12.2988506 23.1800964,12.2988506 L19.5878958,12.2988506 L19.5878958,18.5344828 C19.5878958,18.975098 19.4272706,19.3486575 19.1060153,19.6551724 C18.7847599,19.9616873 18.4002329,20.1149425 17.9524224,20.1149425 C17.5046119,20.1149425 17.1249523,19.9616873 16.813432,19.6551724 C16.5019117,19.3486575 16.3461538,18.975098 16.3461538,18.5344828 L16.3461538,1.58045977 C16.3461538,1.13984454 16.5019117,0.766285057 16.813432,0.459770115 C17.1249523,0.153255172 17.5046119,0 17.9524224,0 L23.1800964,0 C24.9129281,0 26.3926273,0.603442241 27.6192385,1.81034483 L27.6192385,1.81034483 L27.6192385,1.81034483 Z M19.5878958,3.18965517 L19.5878958,9.1091954 L23.1800964,9.1091954 C24.0173072,9.1091954 24.7279522,8.82184195 25.3120528,8.24712644 C25.8961534,7.67241092 26.1979342,6.98276264 26.2174042,6.17816092 C26.1979342,5.33524483 25.8961534,4.62643966 25.3120528,4.05172414 C24.7279522,3.47700862 24.0173072,3.18965517 23.1800964,3.18965517 L19.5878958,3.18965517 L19.5878958,3.18965517 Z M34.6982817,7.47126437 C35.1460921,6.9540204 35.7593885,6.5373579 36.5381893,6.22126437 C37.31699,5.90517083 38.027635,5.75191566 38.6701457,5.76149425 C39.3126564,5.77107284 39.7847972,5.91953879 40.0865825,6.20689655 C40.3883678,6.49425431 40.5392582,6.84386767 40.5392582,7.25574713 C40.5392582,7.6676266 40.3883678,8.02681841 40.0865825,8.33333333 C39.7847972,8.63984826 39.4197398,8.79310345 38.9913994,8.79310345 C37.1806876,8.79310345 35.7496627,10.2394492 34.6982817,13.1321839 L34.6982817,18.591954 C34.6982817,19.013412 34.5425238,19.3726038 34.2310035,19.6695402 C33.9194832,19.9664766 33.544691,20.1149425 33.1066156,20.1149425 C32.6685401,20.1149425 32.2986153,19.9664766 31.99683,19.6695402 C31.6950447,19.3726038 31.5441543,19.013412 31.5441543,18.591954 L31.5441543,7.27011494 C31.5441543,6.8486569 31.6950447,6.49425431 31.99683,6.20689655 C32.2986153,5.91953879 32.6685401,5.77586207 33.1066156,5.77586207 C33.544691,5.77586207 33.9194832,5.91953879 34.2310035,6.20689655 C34.5425238,6.49425431 34.6982817,6.8486569 34.6982817,7.27011494 L34.6982817,7.47126437 L34.6982817,7.47126437 Z M48.4709737,20.2011494 C46.5045018,20.2011494 44.8398401,19.4923443 43.4769387,18.0747126 C42.1140374,16.657081 41.432597,14.9616957 41.432597,12.9885057 C41.432597,11.0153158 42.1189048,9.3151412 43.4915412,7.88793103 C44.8641776,6.46072083 46.5142369,5.74712644 48.4417688,5.74712644 C50.3693007,5.74712644 52.0096252,6.47029928 53.3627915,7.91666667 C54.7159578,9.36303408 55.3925308,11.0823655 55.3925308,13.0747126 C55.3925308,15.0670598 54.7110904,16.7145528 53.3481891,18.0172414 C52.0631678,19.4731873 50.4374456,20.2011494 48.4709737,20.2011494 L48.4709737,20.2011494 L48.4709737,20.2011494 Z M45.6673049,9.97126437 C44.9663843,10.7758661 44.6159292,11.7720247 44.6159292,12.9597701 C44.6159292,14.1475155 44.9663843,15.162831 45.6673049,16.0057471 C46.4266357,16.7145629 47.3417129,17.0689655 48.4125639,17.0689655 C49.483415,17.0689655 50.3984921,16.7145629 51.1578229,16.0057471 C51.9171536,15.162831 52.2968133,14.1475155 52.2968133,12.9597701 C52.2968133,11.7720247 51.9171536,10.7758661 51.1578229,9.97126437 C50.320612,9.24329135 49.4055349,8.87931034 48.4125639,8.87931034 C47.4195929,8.87931034 46.5045158,9.24329135 45.6673049,9.97126437 L45.6673049,9.97126437 L45.6673049,9.97126437 Z M67.1646884,5.96264368 C67.5832938,5.89559353 67.9629535,5.98179957 68.3036788,6.22126437 C68.6444042,6.46072917 68.8488363,6.78639641 68.9169814,7.19827586 C68.9851264,7.61015533 68.8926453,7.96934714 68.639535,8.27586207 L65.1641539,12.9885057 L68.639535,17.7298851 C68.8926453,18.0555572 68.9851264,18.4291167 68.9169814,18.8505747 C68.8488363,19.2720327 68.6590064,19.5881216 68.3474861,19.7988506 C68.0359659,20.0095796 67.6952456,20.1149425 67.3253153,20.1149425 C66.9553849,20.1149425 66.5562555,19.9042166 66.1279151,19.4827586 L63.2074268,15.545977 L60.2869386,19.4827586 C59.9170082,19.9042166 59.5373485,20.1149425 59.1479481,20.1149425 C58.7585477,20.1149425 58.4275624,20.0095796 58.1549821,19.7988506 C57.8239918,19.5881216 57.6244271,19.2672435 57.556282,18.8362069 C57.488137,18.4051703 57.5806181,18.0364 57.8337284,17.7298851 L61.3383143,12.9885057 L57.8337284,8.27586207 C57.5806181,7.96934714 57.488137,7.61015533 57.556282,7.19827586 C57.6244271,6.78639641 57.8288592,6.46072917 58.1695846,6.22126437 C58.5103099,5.98179957 58.8802347,5.89559353 59.2793701,5.96264368 C59.6785055,6.02969382 60.0143583,6.22605201 60.2869386,6.55172414 L63.2074268,10.4022989 L66.1279151,6.55172414 C66.4004954,6.22605201 66.746083,6.02969382 67.1646884,5.96264368 L67.1646884,5.96264368 L67.1646884,5.96264368 Z M83.4229363,5.74712644 C83.8512771,5.74712644 84.2212015,5.89559239 84.5327219,6.19252874 C84.8442422,6.48946509 85,6.8486569 85,7.27011494 L85,18.1321839 C85,20.0479023 84.3234267,21.6714493 82.9702607,23.0028736 C81.6170946,24.3342978 79.967035,25 78.0200331,25 C76.9881223,25 75.9854311,24.7605388 75.0119302,24.2816092 C74.6030594,24.1091945 74.3304837,23.8266303 74.1941934,23.433908 C74.0579032,23.0411857 74.0773731,22.6436802 74.2526032,22.2413793 C74.4473032,21.89655 74.7539513,21.6570888 75.172557,21.5229885 C75.5911628,21.3888883 76.0340986,21.4367805 76.5013792,21.6666667 C76.9686597,21.8965528 77.5527517,22.0067051 78.2536721,21.9971264 C78.9545925,21.9875478 79.6409008,21.7385082 80.3126163,21.25 C80.9843319,20.7614918 81.4370035,20.1436819 81.6706434,19.3965517 C80.8529026,19.8563242 79.9280903,20.0862069 78.8961795,20.0862069 C77.2217582,20.0862069 75.7858652,19.4923431 74.5884594,18.3045977 C73.3910535,17.1168523 72.7923591,15.6992419 72.7923591,14.0517241 L72.7923591,7.27011494 C72.7923591,6.8486569 72.9432493,6.48946509 73.2450348,6.19252874 C73.5468202,5.89559239 73.9118771,5.74712644 74.3402179,5.74712644 C74.7685586,5.74712644 75.1287481,5.89080316 75.4207985,6.17816092 C75.712849,6.46551868 75.8588717,6.82949971 75.8588717,7.27011494 L75.8588717,14.0517241 C75.8588717,14.8754831 76.1557848,15.5699206 76.7496207,16.1350575 C77.3434565,16.7001944 78.0589688,16.9827586 78.8961795,16.9827586 C79.7333902,16.9827586 80.4440351,16.7001944 81.028136,16.1350575 C81.6122369,15.5699206 81.9042824,14.8754831 81.9042824,14.0517241 L81.9042824,7.27011494 C81.9042824,6.82949971 82.0503052,6.46551868 82.3423557,6.17816092 C82.6344061,5.89080316 82.9945956,5.74712644 83.4229363,5.74712644 L83.4229363,5.74712644 L83.4229363,5.74712644 Z" id="uProxy"></path>
                    <path d="M12.5320513,15.0913043 C12.5320513,16.7543561 11.9089444,18.187494 10.6627119,19.3907609 C9.41647941,20.5940278 7.94096222,21.1956522 6.23611619,21.1956522 C4.53127015,21.1956522 3.06572272,20.598919 1.83942995,19.4054348 C0.613137184,18.2119506 0,16.7739214 0,15.0913043 L0,8.07717391 C0,7.66630229 0.154530507,7.30434939 0.463596165,6.99130435 C0.772661822,6.6782593 1.14652596,6.52173913 1.5851998,6.52173913 C2.02387363,6.52173913 2.39773777,6.6782593 2.70680343,6.99130435 C3.01586909,7.30434939 3.1703996,7.66630229 3.1703996,8.07717391 L3.1703996,15.0913043 C3.1703996,15.9326129 3.46450605,16.641845 4.05272779,17.2190217 C4.64094952,17.7961985 5.36375352,18.0847826 6.22116148,18.0847826 C7.07856943,18.0847826 7.81134314,17.7961985 8.41950463,17.2190217 C9.02766604,16.641845 9.34171189,15.9326129 9.36165168,15.0913043 L9.36165168,8.07717391 C9.36165168,7.66630229 9.51119734,7.30434939 9.81029313,6.99130435 C10.1093889,6.6782593 10.4732833,6.52173913 10.9019873,6.52173913 C11.3306912,6.52173913 11.7095403,6.6782593 12.0385457,6.99130435 C12.367551,7.30434939 12.5320513,7.66630229 12.5320513,8.07717391 L12.5320513,15.0913043 L12.5320513,15.0913043 Z" id="Path" opacity="0.599999964"></path>
                    <path d="M97.94,11.14 C97.5759982,11.14 97.2400015,11.0816672 96.932,10.965 C96.6239985,10.8483327 96.3580011,10.6896677 96.134,10.489 C95.9099989,10.2883323 95.7350006,10.0503347 95.609,9.775 C95.4829994,9.49966529 95.42,9.20800154 95.42,8.9 C95.42,8.55466494 95.4946659,8.23966809 95.644,7.955 C95.7933341,7.67033191 96.0056653,7.42766767 96.281,7.227 C96.5563347,7.02633233 96.8829981,6.87233387 97.261,6.765 C97.6390019,6.65766613 98.0519978,6.604 98.5,6.604 C98.8546684,6.604 99.2139982,6.63666634 99.578,6.702 C99.9420018,6.76733366 100.263999,6.85599944 100.544,6.968 L100.544,6.38 C100.544,5.78266368 100.376002,5.31366837 100.04,4.973 C99.7039983,4.63233163 99.2280031,4.462 98.612,4.462 C97.874663,4.462 97.1000041,4.74666382 96.288,5.316 L95.882,4.518 C96.3580024,4.20066508 96.829331,3.96266746 97.296,3.804 C97.762669,3.64533254 98.2479975,3.566 98.752,3.566 C99.685338,3.566 100.422664,3.8226641 100.964,4.336 C101.505336,4.8493359 101.776,5.572662 101.776,6.506 L101.776,9.488 C101.776,9.77733478 101.906665,9.92666662 102.168,9.936 L102.168,11 C102.074666,11.0186668 101.986,11.0326666 101.902,11.042 C101.818,11.0513334 101.738667,11.056 101.664,11.056 C101.458666,11.056 101.258001,11.0000006 101.062,10.888 C100.865999,10.7759994 100.758667,10.584668 100.74,10.314 L100.712,9.796 C100.543999,10.0200011 100.352668,10.2159992 100.138,10.384 C99.9233323,10.5520008 99.6946679,10.6919994 99.452,10.804 C99.2093321,10.9160006 98.959668,10.9999997 98.703,11.056 C98.4463321,11.1120003 98.1920013,11.14 97.94,11.14 Z M98.248,10.216 C98.640002,10.216 99.0226648,10.1320008 99.396,9.964 C99.7693352,9.79599916 100.063332,9.59066788 100.278,9.348 C100.455334,9.14266564 100.544,8.95133422 100.544,8.774 L100.544,7.696 C100.254665,7.58399944 99.9490016,7.49766697 99.627,7.437 C99.3049984,7.37633303 98.9946682,7.346 98.696,7.346 C98.0613302,7.346 97.5526686,7.47433205 97.17,7.731 C96.7873314,7.98766795 96.596,8.33999776 96.596,8.788 C96.596,8.9746676 96.633333,9.15433247 96.708,9.327 C96.782667,9.49966753 96.8899993,9.65133268 97.03,9.782 C97.1700007,9.91266732 97.3426656,10.0176663 97.548,10.097 C97.7533344,10.1763337 97.9866654,10.216 98.248,10.216 Z M105.122,0.78 L106.354,0.78 L106.354,9.11 C106.354,9.38066802 106.426333,9.59299923 106.571,9.747 C106.715667,9.90100077 106.918665,9.978 107.18,9.978 C107.282667,9.978 107.403999,9.96166683 107.544,9.929 C107.684001,9.89633317 107.814666,9.8566669 107.936,9.81 L108.132,10.804 C107.926666,10.8880004 107.684001,10.9579997 107.404,11.014 C107.123999,11.0700003 106.876668,11.098 106.662,11.098 C106.185998,11.098 105.810335,10.962668 105.535,10.692 C105.259665,10.421332 105.122,10.0433358 105.122,9.558 L105.122,0.78 Z M114.278,11.14 C113.67133,11.14 113.137002,10.9906682 112.675,10.692 C112.212998,10.3933318 111.846668,10.0153356 111.576,9.558 L111.576,13.982 L110.344,13.982 L110.344,3.692 L111.436,3.692 L111.436,5.064 C111.725335,4.61599776 112.100998,4.25433471 112.563,3.979 C113.025002,3.70366529 113.535997,3.566 114.096,3.566 C114.600003,3.566 115.061998,3.66866564 115.482,3.874 C115.902002,4.07933436 116.265999,4.35699825 116.574,4.707 C116.882002,5.05700175 117.122333,5.46066438 117.295,5.918 C117.467668,6.37533562 117.554,6.85133086 117.554,7.346 C117.554,7.86866928 117.474668,8.36099769 117.316,8.823 C117.157333,9.28500231 116.933335,9.68633163 116.644,10.027 C116.354665,10.3676684 116.009335,10.6383323 115.608,10.839 C115.206665,11.0396677 114.763336,11.14 114.278,11.14 Z M113.9,10.076 C114.264002,10.076 114.592999,9.99900077 114.887,9.845 C115.181002,9.69099923 115.432999,9.48566795 115.643,9.229 C115.853001,8.97233205 116.014,8.6806683 116.126,8.354 C116.238001,8.0273317 116.294,7.69133506 116.294,7.346 C116.294,6.98199818 116.228667,6.63433499 116.098,6.303 C115.967333,5.97166501 115.790001,5.68233457 115.566,5.435 C115.341999,5.18766543 115.078335,4.99166739 114.775,4.847 C114.471665,4.70233261 114.142669,4.63 113.788,4.63 C113.563999,4.63 113.333001,4.67433289 113.095,4.763 C112.856999,4.85166711 112.633001,4.96833261 112.423,5.113 C112.212999,5.25766739 112.031001,5.43033233 111.877,5.631 C111.722999,5.83166767 111.622667,6.04399888 111.576,6.268 L111.576,8.354 C111.678667,8.59666788 111.809333,8.82299895 111.968,9.033 C112.126668,9.24300105 112.308666,9.42499923 112.514,9.579 C112.719334,9.73300077 112.938666,9.85433289 113.172,9.943 C113.405335,10.0316671 113.647999,10.076 113.9,10.076 Z M126.696,11 L125.464,11 L125.464,6.912 C125.464,6.15599622 125.333335,5.59366851 125.072,5.225 C124.810665,4.85633149 124.428003,4.672 123.924,4.672 C123.681332,4.672 123.438668,4.72099951 123.196,4.819 C122.953332,4.91700049 122.727001,5.04999916 122.517,5.218 C122.306999,5.38600084 122.120334,5.5866655 121.957,5.82 C121.793666,6.0533345 121.670001,6.3099986 121.586,6.59 L121.586,11 L120.354,11 L120.354,0.78 L121.586,0.78 L121.586,5.26 C121.875335,4.72799734 122.267331,4.31266816 122.762,4.014 C123.256669,3.71533184 123.797997,3.566 124.386,3.566 C124.815336,3.566 125.179332,3.64533254 125.478,3.804 C125.776668,3.96266746 126.014666,4.17733198 126.192,4.448 C126.369334,4.71866802 126.497666,5.04299811 126.577,5.421 C126.656334,5.79900189 126.696,6.20266452 126.696,6.632 L126.696,11 Z M131.862,11.14 C131.497998,11.14 131.162002,11.0816672 130.854,10.965 C130.545999,10.8483327 130.280001,10.6896677 130.056,10.489 C129.831999,10.2883323 129.657001,10.0503347 129.531,9.775 C129.405,9.49966529 129.342,9.20800154 129.342,8.9 C129.342,8.55466494 129.416666,8.23966809 129.566,7.955 C129.715334,7.67033191 129.927665,7.42766767 130.203,7.227 C130.478335,7.02633233 130.804998,6.87233387 131.183,6.765 C131.561002,6.65766613 131.973998,6.604 132.422,6.604 C132.776669,6.604 133.135998,6.63666634 133.5,6.702 C133.864002,6.76733366 134.185999,6.85599944 134.466,6.968 L134.466,6.38 C134.466,5.78266368 134.298002,5.31366837 133.962,4.973 C133.625998,4.63233163 133.150003,4.462 132.534,4.462 C131.796663,4.462 131.022004,4.74666382 130.21,5.316 L129.804,4.518 C130.280003,4.20066508 130.751331,3.96266746 131.218,3.804 C131.684669,3.64533254 132.169998,3.566 132.674,3.566 C133.607338,3.566 134.344664,3.8226641 134.886,4.336 C135.427336,4.8493359 135.698,5.572662 135.698,6.506 L135.698,9.488 C135.698,9.77733478 135.828666,9.92666662 136.09,9.936 L136.09,11 C135.996666,11.0186668 135.908001,11.0326666 135.824,11.042 C135.74,11.0513334 135.660667,11.056 135.586,11.056 C135.380666,11.056 135.180001,11.0000006 134.984,10.888 C134.787999,10.7759994 134.680667,10.584668 134.662,10.314 L134.634,9.796 C134.465999,10.0200011 134.274668,10.2159992 134.06,10.384 C133.845332,10.5520008 133.616668,10.6919994 133.374,10.804 C133.131332,10.9160006 132.881668,10.9999997 132.625,11.056 C132.368332,11.1120003 132.114001,11.14 131.862,11.14 Z M132.17,10.216 C132.562002,10.216 132.944665,10.1320008 133.318,9.964 C133.691335,9.79599916 133.985332,9.59066788 134.2,9.348 C134.377334,9.14266564 134.466,8.95133422 134.466,8.774 L134.466,7.696 C134.176665,7.58399944 133.871002,7.49766697 133.549,7.437 C133.226999,7.37633303 132.916668,7.346 132.618,7.346 C131.98333,7.346 131.474669,7.47433205 131.092,7.731 C130.709332,7.98766795 130.518,8.33999776 130.518,8.788 C130.518,8.9746676 130.555333,9.15433247 130.63,9.327 C130.704667,9.49966753 130.811999,9.65133268 130.952,9.782 C131.092001,9.91266732 131.264666,10.0176663 131.47,10.097 C131.675335,10.1763337 131.908666,10.216 132.17,10.216 Z" id="alpha" opacity="0.54"></path>
                </g>
            </g>
        </g>
    </g>
</svg>